# xmcd
#
# Track frame offsets: 
#        150
#        16452
#        32412
#        53595
#        71640
#        90932
#        108970
#        128377
#        143602
#        158805
#        185777
#        198452
#        216015
#        242710
#        260367
#        272615
#        286987
#        301607
#
# Disc length: 4236 seconds
#
# Revision: 4
# Processed by: cddbd v1.5.2PL0 Copyright (c) Steve Scherf et al.
# Submitted via: ExactAudioCopy v0.99pb4
#
DISCID=eb108a12
DTITLE=Various Artist - The No. 1 Line Dancing Album - Disc 1
DYEAR=1997
DGENRE=Country
TTITLE0=Mark Knopfler - Cannibals
TTITLE1=Beach Boys - Still Cruisin'
TTITLE2=Alannah Myles - Black Velvet
TTITLE3=The Escape Club - Wild Wild West
TTITLE4=Brothers Phelps - Any Way The Wind Blows
TTITLE5=Marcia Griffiths - Electric Boogie
TTITLE6=Twister Alley - Dance
TTITLE7=Billy Ray Cyrus - Achy Breaky Heart
TTITLE8=Desert Rose Band - One Step Forward
TTITLE9=Alabama - Dancin', Shaggin' On The Boulevard
TTITLE10=John Michael Montgomery - Be My Baby Tonight
TTITLE11=David Hirschfelder And The Bogo Pogo Orchestra - Scott And Fr
TTITLE11=an's Paso Doble [From Strictly Ballroom]
TTITLE12=Arrow - Hot Hot Hot
TTITLE13=Tim McGraw - I Like It, I Love It [Club Mix]
TTITLE14=Kentucky Headhunters - Singing The Blues
TTITLE15=Rednex - Cotton Eyed Joe
TTITLE16=Delbert McClinton - Why Me
TTITLE17=Boy Howdy - Bigger Fish To Fry
EXTD=
EXTT0=
EXTT1=
EXTT2=
EXTT3=
EXTT4=
EXTT5=
EXTT6=
EXTT7=
EXTT8=
EXTT9=
EXTT10=
EXTT11=
EXTT12=
EXTT13=
EXTT14=
EXTT15=
EXTT16=
EXTT17=
PLAYORDER=
